<svg width="512" height="512" viewBox="0 0 512 512" fill="none" xmlns="http://www.w3.org/2000/svg">
<path d="M437.333 117.333H373.333C368.746 117.333 364.672 114.41 363.221 110.037L356.48 89.813C349.205 67.989 328.875 53.333 305.877 53.333H206.122C183.125 53.333 162.794 67.989 155.541 89.792L148.8 110.037C147.328 114.41 143.253 117.333 138.667 117.333H74.667C33.493 117.333 0 150.827 0 192V384C0 425.173 33.493 458.667 74.667 458.667H437.334C478.507 458.667 512 425.173 512 384V192C512 150.827 478.507 117.333 437.333 117.333ZM490.667 384C490.667 413.397 466.731 437.333 437.334 437.333H74.667C45.27 437.333 21.334 413.397 21.334 384V192C21.334 162.603 45.27 138.667 74.667 138.667H138.667C152.448 138.667 164.651 129.878 169.024 116.8L175.787 96.533C180.139 83.456 192.342 74.666 206.123 74.666H305.878C319.659 74.666 331.862 83.455 336.235 96.554L342.976 116.799C347.349 129.876 359.552 138.666 373.333 138.666H437.333C466.73 138.666 490.666 162.602 490.666 191.999V384H490.667Z" fill="white"/>
<path d="M256 160C185.408 160 128 217.408 128 288C128 358.592 185.408 416 256 416C326.592 416 384 358.592 384 288C384 217.408 326.592 160 256 160ZM256 394.667C197.184 394.667 149.333 346.816 149.333 288C149.333 229.184 197.184 181.333 256 181.333C314.816 181.333 362.667 229.184 362.667 288C362.667 346.816 314.816 394.667 256 394.667Z" fill="white"/>
<path d="M258.629 202C211.405 202 173 240.272 173 287.333C173 293.221 177.796 298 183.704 298C189.612 298 194.407 293.221 194.407 287.333C194.407 252.048 223.222 223.333 258.629 223.333C264.537 223.333 269.333 218.554 269.333 212.666C269.333 206.778 264.537 202 258.629 202Z" fill="white"/>
<line x1="7.94048" y1="194" x2="189.94" y2="192.917" stroke="white" stroke-width="20"/>
<line x1="329.94" y1="193.084" x2="509.941" y2="192.012" stroke="white" stroke-width="20"/>
</svg>
