<svg width="512" height="512" viewBox="0 0 512 512" fill="none" xmlns="http://www.w3.org/2000/svg">
<g clip-path="url(#clip0)">
<path d="M430.827 86.605C381.666 35.075 306.115 27.165 250.227 58.212C245.398 60.894 243.659 66.984 246.341 71.812C249.023 76.642 255.113 78.379 259.941 75.698C311.059 47.297 375.377 57.462 416.312 100.369C458.548 145.18 463.304 211.976 430.629 261.497C385.621 329.859 288.412 340.161 230.129 281.867C190.856 242.608 179.478 179.295 207.847 127.774C210.509 122.934 208.744 116.852 203.905 114.19C199.066 111.53 192.985 113.293 190.321 118.132C189.708 119.247 188.618 121.325 187.567 123.456H187.568C158.48 182.75 171.714 251.757 215.986 296.012C283.134 363.174 395.296 351.542 447.331 272.505C484.648 215.946 480.07 138.85 430.827 86.605Z" fill="#F8CFCF"/>
<path d="M456.438 55.562C382.347 -18.519 261.787 -18.522 187.693 55.563C121.065 122.201 113.892 226.678 168.151 301.419L136.984 332.579C126.057 327.349 112.239 329.037 102.829 338.448L14.667 426.62C-4.88 446.154 -4.896 477.788 14.662 497.333C34.201 516.885 65.834 516.893 85.377 497.335L173.552 409.171C182.958 399.763 184.652 385.945 179.42 375.017L210.583 343.847C285.341 398.118 389.81 390.926 456.438 324.307C530.522 250.214 530.522 129.656 456.438 55.562ZM159.407 395.027L71.23 483.193C59.511 494.921 40.541 494.932 28.806 483.188C17.076 471.467 17.069 452.497 28.808 440.766L116.972 352.592C120.869 348.694 127.214 348.692 131.111 352.592L159.406 380.887C163.306 384.785 163.306 391.129 159.407 395.027ZM166.479 359.67L152.331 345.522L180.812 317.048C183.046 319.527 185.341 321.957 187.692 324.307C190.043 326.658 192.472 328.954 194.953 331.189L166.479 359.67ZM442.293 310.163C376.016 376.43 268.658 376.994 201.835 310.163C135.092 243.427 135.489 136.064 201.835 69.707C268.124 3.42699 375.993 3.41599 442.292 69.707C508.577 136.001 508.577 243.87 442.293 310.163Z" fill="#F8CFCF"/>
<path d="M230.37 84.108C230.3 84.018 230.22 83.938 230.13 83.848C226.219 79.947 219.888 79.947 215.978 83.848C212.077 87.759 212.077 94.09 215.978 98C216.068 98.09 216.148 98.17 216.238 98.25C220.169 101.901 226.31 101.811 230.13 98C233.94 94.179 234.03 88.038 230.37 84.108Z" fill="#F8CFCF"/>
</g>
<defs>
<clipPath id="clip0">
<rect width="512.001" height="512.001" fill="white"/>
</clipPath>
</defs>
</svg>
