<svg width="512" height="512" viewBox="0 0 512 512" fill="none" xmlns="http://www.w3.org/2000/svg">
<path d="M392 384C405.232 384 416 373.232 416 360C416 346.768 405.232 336 392 336C378.768 336 368 346.768 368 360C368 373.232 378.768 384 392 384ZM392 352C396.408 352 400 355.584 400 360C400 364.416 396.408 368 392 368C387.592 368 384 364.416 384 360C384 355.584 387.592 352 392 352Z" fill="#F8CFCF"/>
<path d="M473.28 326.224C470.856 320.416 472.144 313.816 476.552 309.4L488.192 297.752L454.24 263.8L442.584 275.448C438.176 279.864 431.568 281.144 425.456 278.584C419.712 276.216 416 270.664 416 264.44V248H399.592C398.864 235.096 396.472 222.624 392.504 210.808L485.08 118.232C497.28 106.032 504 89.816 504 72.568C504 36.968 475.032 8 439.432 8C422.184 8 405.968 14.72 393.776 26.912L301.296 119.4C289.336 115.384 276.656 113.048 263.56 112.352C252.52 93.064 231.776 80 208 80C201.912 80 196.04 80.912 190.448 82.504C176.64 56.544 149.816 40 120 40C75.888 40 40 75.888 40 120C40 126.128 40.752 132.16 42.12 138.064C22.4 144.032 8 162.36 8 184C8 210.472 29.528 232 56 232H114.032C112.704 239.912 112 247.944 112 256C112 273.608 115.256 287.936 120.512 300.176L49.144 371.552L9.432 474.8C8.48 477.264 8 479.856 8 482.504C8 494.36 17.648 504 29.496 504C32.144 504 34.736 503.512 37.208 502.568L140.456 462.856L192.64 410.664C192.248 412.384 192 414.16 192 416C192 422.168 194.408 427.744 198.24 432C194.4 436.256 192 441.832 192 448C192 459.12 199.64 468.416 209.92 471.12C216.736 490.64 234.992 504 256 504C277.008 504 295.264 490.64 302.08 471.12C312.36 468.416 320 459.12 320 448C320 447.4 319.864 446.84 319.824 446.256L329.76 456.192L341.416 444.544C345.824 440.128 352.408 438.84 358.536 441.392C364.28 443.784 368 449.336 368 455.56V472H416V455.56C416 449.336 419.72 443.776 425.776 441.272C431.584 438.856 438.184 440.128 442.592 444.544L454.24 456.192L488.192 422.24L476.552 410.592C472.144 406.176 470.856 399.576 473.408 393.464C475.784 387.72 481.336 384 487.56 384H504V336H487.56C481.336 336 475.784 332.28 473.28 326.224V326.224ZM353.408 349.808C362.136 341.288 370.88 332.584 378.424 322.52C382.776 320.936 387.304 320 392 320C414.056 320 432 337.944 432 360C432 382.056 414.056 400 392 400C369.944 400 352 382.056 352 360C352 356.536 352.536 353.128 353.408 349.808V349.808ZM363.016 160.304L400 123.312L428.688 152L385.96 194.728C379.968 182.152 372.224 170.584 363.016 160.304V160.304ZM371.312 72L384 59.312L452.688 128L440 140.688L371.312 72ZM439.432 24C466.208 24 488 45.792 488 72.568C488 85.536 482.952 97.736 473.776 106.912L464 116.688L395.312 48L405.088 38.224C414.264 29.056 426.456 24 439.432 24V24ZM360 83.312L388.688 112L351.72 148.968C341.448 139.752 329.888 132 317.312 126L360 83.312ZM384 256C384 297.624 363.04 318.072 340.848 339.712C325.568 354.616 309.872 370.024 300.736 392.48C299.208 392.168 297.624 392 296 392H264V352C264 338.768 253.232 328 240 328H224C219.592 328 216 324.416 216 320C216 315.584 219.592 312 224 312H304C317.232 312 328 301.232 328 288C328 274.768 317.232 264 304 264H240C235.592 264 232 260.416 232 256V232H272C294.056 232 312 214.056 312 192C312 169.944 294.056 152 272 152C271.776 152 271.568 152.064 271.344 152.064C271.688 149.392 272 146.72 272 144C272 138.768 271.296 133.704 270.112 128.832C333.888 135.936 384 190.672 384 256V256ZM208 416C208 411.584 211.592 408 216 408H296C300.408 408 304 411.584 304 416C304 420.416 300.408 424 296 424H216C211.592 424 208 420.416 208 416ZM107.312 416L166.12 357.192C175.96 366.952 185.096 376.824 191.832 388.848L136 444.688L107.312 416ZM24 184C24 166.352 38.352 152 56 152C73.648 152 88 166.352 88 184H104C104 158.224 83.56 137.184 58.048 136.104C56.688 130.872 56 125.472 56 120C56 84.712 84.712 56 120 56C143.4 56 164.52 68.72 175.752 88.808C158.696 98.816 146.648 116.44 144.4 137.008C130.432 140.448 120 152.984 120 168H136C136 159.176 143.176 152 152 152C160.824 152 168 159.176 168 168H184C184 153.32 174.016 141.056 160.52 137.296C163.8 114 183.808 96 208 96C234.472 96 256 117.528 256 144C256 148.208 255.312 152.328 254.24 156.344C241.12 162.912 232 176.352 232 192H248C248 178.768 258.768 168 272 168C285.232 168 296 178.768 296 192C296 205.232 285.232 216 272 216H56C38.352 216 24 201.648 24 184V184ZM216 232V256C216 269.232 226.768 280 240 280H304C308.408 280 312 283.584 312 288C312 292.416 308.408 296 304 296H224C210.768 296 200 306.768 200 320C200 333.232 210.768 344 224 344H240C244.408 344 248 347.584 248 352V392H216C214.376 392 212.792 392.168 211.264 392.48C202.128 370.024 186.432 354.616 171.152 339.712C148.96 318.072 128 297.624 128 256C128 247.912 128.968 239.896 130.464 232H216ZM154.696 345.992L96 404.688L67.312 376L128.352 314.96C135.864 326.752 145.176 336.592 154.696 345.992V345.992ZM59.048 390.36L121.64 452.952L68.648 473.336L38.664 443.352L59.048 390.36ZM31.472 487.632C28.008 488.976 24 486.216 24 482.504C24 481.824 24.128 481.16 24.36 480.536L32.376 459.688L52.304 479.616L31.472 487.632ZM256 488C244.184 488 233.648 481.712 227.808 472H284.192C278.352 481.712 267.816 488 256 488ZM296 456H216C211.592 456 208 452.416 208 448C208 443.584 211.592 440 216 440H296C300.408 440 304 443.584 304 448C304 452.416 300.408 456 296 456ZM488 368H487.56C474.832 368 463.472 375.6 458.512 387.616C453.584 399.432 456.224 412.888 465.232 421.904L465.568 422.24L454.24 433.568L453.904 433.232C444.88 424.208 431.408 421.56 419.352 426.616C407.6 431.48 400 442.832 400 455.56V456H384V455.56C384 442.832 376.4 431.472 364.384 426.504C352.552 421.568 339.096 424.216 330.088 433.232L329.752 433.568L318.912 422.728C319.552 420.576 320 418.352 320 416C320 410.32 317.936 405.168 314.624 401.048C319.6 387.616 327.4 376.872 336.48 366.952C339.92 394.552 363.48 416 392 416C422.88 416 448 390.872 448 360C448 329.128 422.88 304 392 304C391.216 304 390.456 304.08 389.68 304.112C395.096 292.872 398.816 279.84 399.752 264H400V264.44C400 277.168 407.6 288.536 419.608 293.488C431.416 298.432 444.888 295.792 453.904 286.768L454.24 286.432L465.568 297.76L465.232 298.096C456.224 307.112 453.584 320.576 458.616 332.64C463.472 344.4 474.832 352 487.56 352H488V368Z" fill="#F8CFCF"/>
<rect x="0.5" y="0.5" width="511" height="511" stroke="#F8CFCF"/>
</svg>
